<svg width="48" height="10" viewBox="0 0 48 10" fill="none" xmlns="http://www.w3.org/2000/svg">
<path d="M0.492 0.599999H4.092V1.8H1.812V4.02H3.624V5.22H1.812V7.8H4.092V9H0.492V0.599999ZM5.88338 1.8H4.50338V0.599999H8.58338V1.8H7.20338V9H5.88338V1.8ZM11.0836 9.12C10.4356 9.12 9.93959 8.936 9.59559 8.568C9.25159 8.2 9.07959 7.68 9.07959 7.008V2.592C9.07959 1.92 9.25159 1.4 9.59559 1.032C9.93959 0.664 10.4356 0.48 11.0836 0.48C11.7316 0.48 12.2276 0.664 12.5716 1.032C12.9156 1.4 13.0876 1.92 13.0876 2.592V7.008C13.0876 7.68 12.9156 8.2 12.5716 8.568C12.2276 8.936 11.7316 9.12 11.0836 9.12ZM11.0836 7.92C11.5396 7.92 11.7676 7.644 11.7676 7.092V2.508C11.7676 1.956 11.5396 1.68 11.0836 1.68C10.6276 1.68 10.3996 1.956 10.3996 2.508V7.092C10.3996 7.644 10.6276 7.92 11.0836 7.92ZM13.9803 0.599999H15.3003V9H13.9803V0.599999ZM16.2889 0.599999H17.6089V7.8H19.7809V9H16.2889V0.599999ZM20.4139 0.599999H24.0139V1.8H21.7339V4.02H23.5459V5.22H21.7339V7.8H24.0139V9H20.4139V0.599999ZM26.6951 0.599999H28.3511L29.6351 5.628H29.6591V0.599999H30.8351V9H29.4791L27.8951 2.868H27.8711V9H26.6951V0.599999ZM33.7242 9.12C33.0762 9.12 32.5802 8.936 32.2362 8.568C31.8922 8.2 31.7202 7.68 31.7202 7.008V2.592C31.7202 1.92 31.8922 1.4 32.2362 1.032C32.5802 0.664 33.0762 0.48 33.7242 0.48C34.3722 0.48 34.8682 0.664 35.2122 1.032C35.5562 1.4 35.7282 1.92 35.7282 2.592V7.008C35.7282 7.68 35.5562 8.2 35.2122 8.568C34.8682 8.936 34.3722 9.12 33.7242 9.12ZM33.7242 7.92C34.1802 7.92 34.4082 7.644 34.4082 7.092V2.508C34.4082 1.956 34.1802 1.68 33.7242 1.68C33.2682 1.68 33.0402 1.956 33.0402 2.508V7.092C33.0402 7.644 33.2682 7.92 33.7242 7.92ZM36.6209 0.599999H37.9409V9H36.6209V0.599999ZM38.9295 0.599999H40.8855C41.5655 0.599999 42.0615 0.76 42.3735 1.08C42.6855 1.392 42.8415 1.876 42.8415 2.532V3.048C42.8415 3.92 42.5535 4.472 41.9775 4.704V4.728C42.2975 4.824 42.5215 5.02 42.6495 5.316C42.7855 5.612 42.8535 6.008 42.8535 6.504V7.98C42.8535 8.22 42.8615 8.416 42.8775 8.568C42.8935 8.712 42.9335 8.856 42.9975 9H41.6535C41.6055 8.864 41.5735 8.736 41.5575 8.616C41.5415 8.496 41.5335 8.28 41.5335 7.968V6.432C41.5335 6.048 41.4695 5.78 41.3415 5.628C41.2215 5.476 41.0095 5.4 40.7055 5.4H40.2495V9H38.9295V0.599999ZM40.7295 4.2C40.9935 4.2 41.1895 4.132 41.3175 3.996C41.4535 3.86 41.5215 3.632 41.5215 3.312V2.664C41.5215 2.36 41.4655 2.14 41.3535 2.004C41.2495 1.868 41.0815 1.8 40.8495 1.8H40.2495V4.2H40.7295ZM43.7693 0.599999H47.3693V1.8H45.0893V4.02H46.9013V5.22H45.0893V7.8H47.3693V9H43.7693V0.599999Z" fill="white"/>
</svg>
